<mxfile host="app.diagrams.net" modified="2023-10-25T20:56:42.171Z" agent="Mozilla/5.0 (Windows NT 10.0; Win64; x64) AppleWebKit/537.36 (KHTML, like Gecko) Chrome/118.0.0.0 Safari/537.36 Edg/118.0.2088.61" etag="35mBFxRtvm2bvqig0ew4" version="22.0.8" type="device" pages="2">
  <diagram id="Vt9Wylr6myVkdjVLlb30" name="Страница — 7">
    <mxGraphModel dx="1328" dy="759" grid="1" gridSize="10" guides="1" tooltips="1" connect="1" arrows="1" fold="1" page="1" pageScale="1" pageWidth="827" pageHeight="1169" math="0" shadow="0">
      <root>
        <mxCell id="0" />
        <mxCell id="1" parent="0" />
        <mxCell id="9KfOVbXD8plMLgqeSXP7-1" value="User" style="shape=umlActor;verticalLabelPosition=bottom;verticalAlign=top;html=1;" parent="1" vertex="1">
          <mxGeometry x="290" y="260" width="30" height="60" as="geometry" />
        </mxCell>
        <mxCell id="45ngkCK1H18UalWsbCDO-1" value="Удалить свой аккаунт" style="ellipse;whiteSpace=wrap;html=1;" vertex="1" parent="1">
          <mxGeometry x="110" y="140" width="120" height="80" as="geometry" />
        </mxCell>
        <mxCell id="45ngkCK1H18UalWsbCDO-2" value="Снять видеоролики&amp;nbsp;" style="ellipse;whiteSpace=wrap;html=1;" vertex="1" parent="1">
          <mxGeometry x="350" y="380" width="120" height="80" as="geometry" />
        </mxCell>
        <mxCell id="45ngkCK1H18UalWsbCDO-3" value="Обработать видеоролик" style="ellipse;whiteSpace=wrap;html=1;" vertex="1" parent="1">
          <mxGeometry x="414" y="200" width="120" height="80" as="geometry" />
        </mxCell>
        <mxCell id="45ngkCK1H18UalWsbCDO-4" value="Отписаться на аккаунт" style="ellipse;whiteSpace=wrap;html=1;" vertex="1" parent="1">
          <mxGeometry x="230" y="80" width="120" height="80" as="geometry" />
        </mxCell>
        <mxCell id="45ngkCK1H18UalWsbCDO-5" value="Поделится видеоролики&amp;nbsp; в социальной сети&amp;nbsp;" style="ellipse;whiteSpace=wrap;html=1;" vertex="1" parent="1">
          <mxGeometry x="70" y="230" width="120" height="80" as="geometry" />
        </mxCell>
        <mxCell id="45ngkCK1H18UalWsbCDO-6" value="Подписаться на аккаунт" style="ellipse;whiteSpace=wrap;html=1;" vertex="1" parent="1">
          <mxGeometry x="220" y="400" width="120" height="80" as="geometry" />
        </mxCell>
        <mxCell id="45ngkCK1H18UalWsbCDO-8" value="поставить лайк на видеоролики" style="ellipse;whiteSpace=wrap;html=1;" vertex="1" parent="1">
          <mxGeometry x="414" y="640" width="120" height="80" as="geometry" />
        </mxCell>
        <mxCell id="45ngkCK1H18UalWsbCDO-9" value="Заблокировать пользователя&amp;nbsp;" style="ellipse;whiteSpace=wrap;html=1;" vertex="1" parent="1">
          <mxGeometry x="40" y="650" width="120" height="80" as="geometry" />
        </mxCell>
        <mxCell id="45ngkCK1H18UalWsbCDO-10" value="Поставить комментарий на видеоролики&amp;nbsp;" style="ellipse;whiteSpace=wrap;html=1;" vertex="1" parent="1">
          <mxGeometry x="240" y="800" width="120" height="80" as="geometry" />
        </mxCell>
        <mxCell id="45ngkCK1H18UalWsbCDO-11" value="Репостнуть ролик к себе на страницу&amp;nbsp;" style="ellipse;whiteSpace=wrap;html=1;" vertex="1" parent="1">
          <mxGeometry x="80" y="760" width="120" height="80" as="geometry" />
        </mxCell>
        <mxCell id="45ngkCK1H18UalWsbCDO-12" value="Написать в службу поддержки&amp;nbsp;" style="ellipse;whiteSpace=wrap;html=1;" vertex="1" parent="1">
          <mxGeometry x="55" y="540" width="120" height="80" as="geometry" />
        </mxCell>
        <mxCell id="45ngkCK1H18UalWsbCDO-13" value="Посмотреть Видеороликов" style="ellipse;whiteSpace=wrap;html=1;" vertex="1" parent="1">
          <mxGeometry x="410" y="550" width="120" height="80" as="geometry" />
        </mxCell>
        <mxCell id="45ngkCK1H18UalWsbCDO-14" value="Создание и изменение Аватра" style="ellipse;whiteSpace=wrap;html=1;" vertex="1" parent="1">
          <mxGeometry x="80" y="330" width="120" height="80" as="geometry" />
        </mxCell>
        <mxCell id="45ngkCK1H18UalWsbCDO-15" value="запустить в прямой Эфир" style="ellipse;whiteSpace=wrap;html=1;" vertex="1" parent="1">
          <mxGeometry x="430" y="300" width="120" height="80" as="geometry" />
        </mxCell>
        <mxCell id="45ngkCK1H18UalWsbCDO-16" value="Зарегистрироваться&amp;nbsp;" style="ellipse;whiteSpace=wrap;html=1;" vertex="1" parent="1">
          <mxGeometry x="360" y="120" width="120" height="80" as="geometry" />
        </mxCell>
        <mxCell id="45ngkCK1H18UalWsbCDO-17" value="Отправить сообщение другому пользователю&amp;nbsp;" style="ellipse;whiteSpace=wrap;html=1;" vertex="1" parent="1">
          <mxGeometry x="175" y="480" width="120" height="80" as="geometry" />
        </mxCell>
        <mxCell id="45ngkCK1H18UalWsbCDO-18" value="Разблокировать пользователя&amp;nbsp;" style="ellipse;whiteSpace=wrap;html=1;" vertex="1" parent="1">
          <mxGeometry x="320" y="480" width="120" height="80" as="geometry" />
        </mxCell>
        <mxCell id="45ngkCK1H18UalWsbCDO-19" value="&lt;font style=&quot;font-size: 11px;&quot;&gt;Поделиться ссылкой профиль на социальной сети&amp;nbsp;&lt;/font&gt;" style="ellipse;whiteSpace=wrap;html=1;" vertex="1" parent="1">
          <mxGeometry x="390" y="750" width="120" height="80" as="geometry" />
        </mxCell>
        <mxCell id="45ngkCK1H18UalWsbCDO-20" value="User" style="shape=umlActor;verticalLabelPosition=bottom;verticalAlign=top;html=1;outlineConnect=0;" vertex="1" parent="1">
          <mxGeometry x="265" y="660" width="30" height="60" as="geometry" />
        </mxCell>
        <mxCell id="45ngkCK1H18UalWsbCDO-25" value="" style="endArrow=classic;html=1;rounded=0;exitX=0.5;exitY=0.5;exitDx=0;exitDy=0;exitPerimeter=0;" edge="1" parent="1" source="9KfOVbXD8plMLgqeSXP7-1" target="45ngkCK1H18UalWsbCDO-16">
          <mxGeometry width="50" height="50" relative="1" as="geometry">
            <mxPoint x="320" y="270" as="sourcePoint" />
            <mxPoint x="370" y="220" as="targetPoint" />
          </mxGeometry>
        </mxCell>
        <mxCell id="45ngkCK1H18UalWsbCDO-26" value="" style="edgeStyle=none;orthogonalLoop=1;jettySize=auto;html=1;rounded=0;exitX=0.5;exitY=0.5;exitDx=0;exitDy=0;exitPerimeter=0;entryX=0.5;entryY=1;entryDx=0;entryDy=0;" edge="1" parent="1" source="9KfOVbXD8plMLgqeSXP7-1" target="45ngkCK1H18UalWsbCDO-4">
          <mxGeometry width="100" relative="1" as="geometry">
            <mxPoint x="240" y="230" as="sourcePoint" />
            <mxPoint x="340" y="230" as="targetPoint" />
            <Array as="points" />
          </mxGeometry>
        </mxCell>
        <mxCell id="45ngkCK1H18UalWsbCDO-27" value="" style="endArrow=classic;html=1;rounded=0;exitX=0.5;exitY=0.5;exitDx=0;exitDy=0;exitPerimeter=0;" edge="1" parent="1" source="9KfOVbXD8plMLgqeSXP7-1" target="45ngkCK1H18UalWsbCDO-1">
          <mxGeometry width="50" height="50" relative="1" as="geometry">
            <mxPoint x="330" y="350" as="sourcePoint" />
            <mxPoint x="380" y="300" as="targetPoint" />
          </mxGeometry>
        </mxCell>
        <mxCell id="45ngkCK1H18UalWsbCDO-29" value="" style="edgeStyle=none;orthogonalLoop=1;jettySize=auto;html=1;rounded=0;entryX=0;entryY=0.5;entryDx=0;entryDy=0;" edge="1" parent="1" target="45ngkCK1H18UalWsbCDO-15">
          <mxGeometry width="100" relative="1" as="geometry">
            <mxPoint x="300" y="290" as="sourcePoint" />
            <mxPoint x="420" y="330" as="targetPoint" />
            <Array as="points" />
          </mxGeometry>
        </mxCell>
        <mxCell id="45ngkCK1H18UalWsbCDO-31" value="" style="edgeStyle=none;orthogonalLoop=1;jettySize=auto;html=1;rounded=0;exitX=0.5;exitY=0.5;exitDx=0;exitDy=0;exitPerimeter=0;" edge="1" parent="1" source="9KfOVbXD8plMLgqeSXP7-1" target="45ngkCK1H18UalWsbCDO-5">
          <mxGeometry width="100" relative="1" as="geometry">
            <mxPoint x="280" y="360" as="sourcePoint" />
            <mxPoint x="380" y="360" as="targetPoint" />
            <Array as="points" />
          </mxGeometry>
        </mxCell>
        <mxCell id="45ngkCK1H18UalWsbCDO-33" value="" style="edgeStyle=none;orthogonalLoop=1;jettySize=auto;html=1;rounded=0;exitX=0.5;exitY=0.5;exitDx=0;exitDy=0;exitPerimeter=0;entryX=0.998;entryY=0.371;entryDx=0;entryDy=0;entryPerimeter=0;" edge="1" parent="1" source="9KfOVbXD8plMLgqeSXP7-1" target="45ngkCK1H18UalWsbCDO-14">
          <mxGeometry width="100" relative="1" as="geometry">
            <mxPoint x="280" y="369.33" as="sourcePoint" />
            <mxPoint x="380" y="369.33" as="targetPoint" />
            <Array as="points" />
          </mxGeometry>
        </mxCell>
        <mxCell id="45ngkCK1H18UalWsbCDO-34" value="" style="edgeStyle=none;orthogonalLoop=1;jettySize=auto;html=1;rounded=0;exitX=0.5;exitY=0.5;exitDx=0;exitDy=0;exitPerimeter=0;entryX=0.5;entryY=0;entryDx=0;entryDy=0;" edge="1" parent="1" source="9KfOVbXD8plMLgqeSXP7-1" target="45ngkCK1H18UalWsbCDO-6">
          <mxGeometry width="100" relative="1" as="geometry">
            <mxPoint x="305" y="280" as="sourcePoint" />
            <mxPoint x="420" y="369.33" as="targetPoint" />
            <Array as="points" />
          </mxGeometry>
        </mxCell>
        <mxCell id="45ngkCK1H18UalWsbCDO-35" value="" style="edgeStyle=none;orthogonalLoop=1;jettySize=auto;html=1;rounded=0;exitX=0.5;exitY=0.5;exitDx=0;exitDy=0;exitPerimeter=0;entryX=0.33;entryY=0.013;entryDx=0;entryDy=0;entryPerimeter=0;" edge="1" parent="1" source="9KfOVbXD8plMLgqeSXP7-1" target="45ngkCK1H18UalWsbCDO-2">
          <mxGeometry width="100" relative="1" as="geometry">
            <mxPoint x="370" y="360" as="sourcePoint" />
            <mxPoint x="470" y="360" as="targetPoint" />
            <Array as="points" />
          </mxGeometry>
        </mxCell>
        <mxCell id="45ngkCK1H18UalWsbCDO-36" value="" style="edgeStyle=none;orthogonalLoop=1;jettySize=auto;html=1;rounded=0;entryX=0;entryY=1;entryDx=0;entryDy=0;" edge="1" parent="1" target="45ngkCK1H18UalWsbCDO-3">
          <mxGeometry width="100" relative="1" as="geometry">
            <mxPoint x="300" y="290" as="sourcePoint" />
            <mxPoint x="440" y="289.33000000000004" as="targetPoint" />
            <Array as="points" />
          </mxGeometry>
        </mxCell>
        <mxCell id="45ngkCK1H18UalWsbCDO-37" value="" style="endArrow=classic;html=1;rounded=0;exitX=0.5;exitY=0.5;exitDx=0;exitDy=0;exitPerimeter=0;entryX=0;entryY=0.5;entryDx=0;entryDy=0;" edge="1" parent="1" source="45ngkCK1H18UalWsbCDO-20" target="45ngkCK1H18UalWsbCDO-13">
          <mxGeometry width="50" height="50" relative="1" as="geometry">
            <mxPoint x="330" y="660" as="sourcePoint" />
            <mxPoint x="380" y="610" as="targetPoint" />
          </mxGeometry>
        </mxCell>
        <mxCell id="45ngkCK1H18UalWsbCDO-38" value="" style="endArrow=classic;html=1;rounded=0;exitX=0.5;exitY=0.5;exitDx=0;exitDy=0;exitPerimeter=0;entryX=0.287;entryY=1.01;entryDx=0;entryDy=0;entryPerimeter=0;" edge="1" parent="1" source="45ngkCK1H18UalWsbCDO-20" target="45ngkCK1H18UalWsbCDO-18">
          <mxGeometry width="50" height="50" relative="1" as="geometry">
            <mxPoint x="300" y="710" as="sourcePoint" />
            <mxPoint x="430" y="610" as="targetPoint" />
          </mxGeometry>
        </mxCell>
        <mxCell id="45ngkCK1H18UalWsbCDO-39" value="" style="endArrow=classic;html=1;rounded=0;exitX=0.5;exitY=0.5;exitDx=0;exitDy=0;exitPerimeter=0;entryX=0.5;entryY=1;entryDx=0;entryDy=0;" edge="1" parent="1" source="45ngkCK1H18UalWsbCDO-20" target="45ngkCK1H18UalWsbCDO-17">
          <mxGeometry width="50" height="50" relative="1" as="geometry">
            <mxPoint x="290" y="700" as="sourcePoint" />
            <mxPoint x="364" y="571" as="targetPoint" />
          </mxGeometry>
        </mxCell>
        <mxCell id="45ngkCK1H18UalWsbCDO-40" value="" style="endArrow=classic;html=1;rounded=0;entryX=1;entryY=1;entryDx=0;entryDy=0;" edge="1" parent="1" target="45ngkCK1H18UalWsbCDO-12">
          <mxGeometry width="50" height="50" relative="1" as="geometry">
            <mxPoint x="280" y="690" as="sourcePoint" />
            <mxPoint x="245" y="570" as="targetPoint" />
          </mxGeometry>
        </mxCell>
        <mxCell id="45ngkCK1H18UalWsbCDO-41" value="" style="endArrow=classic;html=1;rounded=0;entryX=1;entryY=0.5;entryDx=0;entryDy=0;exitX=0.5;exitY=0.5;exitDx=0;exitDy=0;exitPerimeter=0;" edge="1" parent="1" source="45ngkCK1H18UalWsbCDO-20" target="45ngkCK1H18UalWsbCDO-9">
          <mxGeometry width="50" height="50" relative="1" as="geometry">
            <mxPoint x="295" y="712" as="sourcePoint" />
            <mxPoint x="172" y="630" as="targetPoint" />
          </mxGeometry>
        </mxCell>
        <mxCell id="45ngkCK1H18UalWsbCDO-42" value="" style="endArrow=classic;html=1;rounded=0;entryX=1;entryY=0;entryDx=0;entryDy=0;exitX=0.5;exitY=0.5;exitDx=0;exitDy=0;exitPerimeter=0;" edge="1" parent="1" source="45ngkCK1H18UalWsbCDO-20" target="45ngkCK1H18UalWsbCDO-11">
          <mxGeometry width="50" height="50" relative="1" as="geometry">
            <mxPoint x="290" y="700" as="sourcePoint" />
            <mxPoint x="170" y="700" as="targetPoint" />
          </mxGeometry>
        </mxCell>
        <mxCell id="45ngkCK1H18UalWsbCDO-43" value="" style="endArrow=classic;html=1;rounded=0;entryX=0.5;entryY=0;entryDx=0;entryDy=0;exitX=0.5;exitY=0.5;exitDx=0;exitDy=0;exitPerimeter=0;" edge="1" parent="1" source="45ngkCK1H18UalWsbCDO-20" target="45ngkCK1H18UalWsbCDO-10">
          <mxGeometry width="50" height="50" relative="1" as="geometry">
            <mxPoint x="290" y="700" as="sourcePoint" />
            <mxPoint x="192" y="782" as="targetPoint" />
          </mxGeometry>
        </mxCell>
        <mxCell id="45ngkCK1H18UalWsbCDO-44" value="" style="endArrow=classic;html=1;rounded=0;entryX=0;entryY=0;entryDx=0;entryDy=0;exitX=0.5;exitY=0.5;exitDx=0;exitDy=0;exitPerimeter=0;" edge="1" parent="1" source="45ngkCK1H18UalWsbCDO-20" target="45ngkCK1H18UalWsbCDO-19">
          <mxGeometry width="50" height="50" relative="1" as="geometry">
            <mxPoint x="290" y="700" as="sourcePoint" />
            <mxPoint x="310" y="810" as="targetPoint" />
          </mxGeometry>
        </mxCell>
        <mxCell id="45ngkCK1H18UalWsbCDO-45" value="" style="endArrow=classic;html=1;rounded=0;entryX=0;entryY=0.5;entryDx=0;entryDy=0;" edge="1" parent="1" target="45ngkCK1H18UalWsbCDO-8">
          <mxGeometry width="50" height="50" relative="1" as="geometry">
            <mxPoint x="280" y="690" as="sourcePoint" />
            <mxPoint x="418" y="772" as="targetPoint" />
          </mxGeometry>
        </mxCell>
        <mxCell id="45ngkCK1H18UalWsbCDO-46" value="Administrator&amp;nbsp;" style="shape=umlActor;verticalLabelPosition=bottom;verticalAlign=top;html=1;outlineConnect=0;" vertex="1" parent="1">
          <mxGeometry x="1030" y="440" width="30" height="60" as="geometry" />
        </mxCell>
        <mxCell id="45ngkCK1H18UalWsbCDO-47" value="Управление Контентом" style="ellipse;whiteSpace=wrap;html=1;" vertex="1" parent="1">
          <mxGeometry x="880" y="270" width="120" height="80" as="geometry" />
        </mxCell>
        <mxCell id="45ngkCK1H18UalWsbCDO-48" value="Аутентификации аккаунта пользователя&amp;nbsp;" style="ellipse;whiteSpace=wrap;html=1;" vertex="1" parent="1">
          <mxGeometry x="800" y="380" width="120" height="80" as="geometry" />
        </mxCell>
        <mxCell id="45ngkCK1H18UalWsbCDO-49" value="Выслать пользователю предупреждение&amp;nbsp;" style="ellipse;whiteSpace=wrap;html=1;" vertex="1" parent="1">
          <mxGeometry x="810" y="510" width="120" height="80" as="geometry" />
        </mxCell>
        <mxCell id="45ngkCK1H18UalWsbCDO-50" value="удалить контент пользователя&amp;nbsp;" style="ellipse;whiteSpace=wrap;html=1;" vertex="1" parent="1">
          <mxGeometry x="975" y="600" width="120" height="80" as="geometry" />
        </mxCell>
        <mxCell id="45ngkCK1H18UalWsbCDO-51" value="Заблокировать пользователя навсегда&amp;nbsp;" style="ellipse;whiteSpace=wrap;html=1;" vertex="1" parent="1">
          <mxGeometry x="1130" y="520" width="120" height="80" as="geometry" />
        </mxCell>
        <mxCell id="45ngkCK1H18UalWsbCDO-53" value="Заблокировать пользователя временно" style="ellipse;whiteSpace=wrap;html=1;" vertex="1" parent="1">
          <mxGeometry x="1160" y="370" width="120" height="80" as="geometry" />
        </mxCell>
        <mxCell id="45ngkCK1H18UalWsbCDO-54" value="ответить на сообщение службу поддержки&amp;nbsp;" style="ellipse;whiteSpace=wrap;html=1;" vertex="1" parent="1">
          <mxGeometry x="1060" y="260" width="120" height="80" as="geometry" />
        </mxCell>
        <mxCell id="45ngkCK1H18UalWsbCDO-58" value="" style="edgeStyle=none;orthogonalLoop=1;jettySize=auto;html=1;rounded=0;exitX=0.5;exitY=0.5;exitDx=0;exitDy=0;exitPerimeter=0;" edge="1" parent="1" source="45ngkCK1H18UalWsbCDO-46" target="45ngkCK1H18UalWsbCDO-53">
          <mxGeometry width="100" relative="1" as="geometry">
            <mxPoint x="1080" y="469.33" as="sourcePoint" />
            <mxPoint x="1180" y="469.33" as="targetPoint" />
            <Array as="points" />
          </mxGeometry>
        </mxCell>
        <mxCell id="45ngkCK1H18UalWsbCDO-59" value="" style="edgeStyle=none;orthogonalLoop=1;jettySize=auto;html=1;rounded=0;exitX=0.5;exitY=0.5;exitDx=0;exitDy=0;exitPerimeter=0;" edge="1" parent="1" source="45ngkCK1H18UalWsbCDO-46" target="45ngkCK1H18UalWsbCDO-54">
          <mxGeometry width="100" relative="1" as="geometry">
            <mxPoint x="1038" y="422" as="sourcePoint" />
            <mxPoint x="1160" y="380" as="targetPoint" />
            <Array as="points" />
          </mxGeometry>
        </mxCell>
        <mxCell id="45ngkCK1H18UalWsbCDO-60" value="" style="edgeStyle=none;orthogonalLoop=1;jettySize=auto;html=1;rounded=0;exitX=0.5;exitY=0.5;exitDx=0;exitDy=0;exitPerimeter=0;" edge="1" parent="1" source="45ngkCK1H18UalWsbCDO-46" target="45ngkCK1H18UalWsbCDO-47">
          <mxGeometry width="100" relative="1" as="geometry">
            <mxPoint x="1016" y="462" as="sourcePoint" />
            <mxPoint x="1074" y="330" as="targetPoint" />
            <Array as="points" />
          </mxGeometry>
        </mxCell>
        <mxCell id="45ngkCK1H18UalWsbCDO-62" value="" style="edgeStyle=none;orthogonalLoop=1;jettySize=auto;html=1;rounded=0;exitX=0.5;exitY=0.5;exitDx=0;exitDy=0;exitPerimeter=0;entryX=1;entryY=0.5;entryDx=0;entryDy=0;" edge="1" parent="1" source="45ngkCK1H18UalWsbCDO-46" target="45ngkCK1H18UalWsbCDO-48">
          <mxGeometry width="100" relative="1" as="geometry">
            <mxPoint x="1055" y="480" as="sourcePoint" />
            <mxPoint x="974" y="357" as="targetPoint" />
            <Array as="points" />
          </mxGeometry>
        </mxCell>
        <mxCell id="45ngkCK1H18UalWsbCDO-63" value="" style="edgeStyle=none;orthogonalLoop=1;jettySize=auto;html=1;rounded=0;exitX=0.5;exitY=0.5;exitDx=0;exitDy=0;exitPerimeter=0;" edge="1" parent="1" source="45ngkCK1H18UalWsbCDO-46" target="45ngkCK1H18UalWsbCDO-49">
          <mxGeometry width="100" relative="1" as="geometry">
            <mxPoint x="1045" y="500" as="sourcePoint" />
            <mxPoint x="920" y="450" as="targetPoint" />
            <Array as="points" />
          </mxGeometry>
        </mxCell>
        <mxCell id="45ngkCK1H18UalWsbCDO-64" value="" style="edgeStyle=none;orthogonalLoop=1;jettySize=auto;html=1;rounded=0;exitX=0.5;exitY=0.5;exitDx=0;exitDy=0;exitPerimeter=0;entryX=0.5;entryY=0;entryDx=0;entryDy=0;" edge="1" parent="1" source="45ngkCK1H18UalWsbCDO-46" target="45ngkCK1H18UalWsbCDO-50">
          <mxGeometry width="100" relative="1" as="geometry">
            <mxPoint x="1066" y="531.5" as="sourcePoint" />
            <mxPoint x="940" y="588.5" as="targetPoint" />
            <Array as="points" />
          </mxGeometry>
        </mxCell>
        <mxCell id="45ngkCK1H18UalWsbCDO-65" value="" style="edgeStyle=none;orthogonalLoop=1;jettySize=auto;html=1;rounded=0;exitX=0.5;exitY=0.5;exitDx=0;exitDy=0;exitPerimeter=0;" edge="1" parent="1" source="45ngkCK1H18UalWsbCDO-46" target="45ngkCK1H18UalWsbCDO-51">
          <mxGeometry width="100" relative="1" as="geometry">
            <mxPoint x="1120" y="485" as="sourcePoint" />
            <mxPoint x="1110" y="615" as="targetPoint" />
            <Array as="points" />
          </mxGeometry>
        </mxCell>
      </root>
    </mxGraphModel>
  </diagram>
  <diagram id="JXDvtUBAeS9h8ETebWBj" name="Страница — 2">
    <mxGraphModel dx="996" dy="569" grid="1" gridSize="10" guides="1" tooltips="1" connect="1" arrows="1" fold="1" page="1" pageScale="1" pageWidth="827" pageHeight="1169" math="0" shadow="0">
      <root>
        <mxCell id="0" />
        <mxCell id="1" parent="0" />
      </root>
    </mxGraphModel>
  </diagram>
</mxfile>
